<svg xmlns="http://www.w3.org/2000/svg" viewBox="0 0 150 46.5"><style type="text/css">.st0{fill:#FFFFFF;}</style><path class="st0" d="M148 9.1c0 2.1-1.6 3.7-3.7 3.7-2.1 0-3.8-1.6-3.8-3.7 0-2 1.7-3.6 3.8-3.6C146.3 5.4 148 7.1 148 9.1zM141.5 9.1c0 1.6 1.2 2.8 2.7 2.8 1.6 0 2.7-1.3 2.7-2.8 0-1.6-1.1-2.8-2.7-2.8C142.7 6.3 141.5 7.5 141.5 9.1zM143.7 10.9h-0.9V7.4c0.3 0 0.8-0.1 1.4-0.1 0.7 0 1.1 0.1 1.3 0.3 0.2 0.2 0.4 0.4 0.4 0.8 0 0.4-0.3 0.7-0.8 0.8v0c0.4 0.1 0.6 0.4 0.7 0.9 0.1 0.5 0.2 0.7 0.3 0.8H145c-0.1-0.1-0.2-0.4-0.3-0.8-0.1-0.4-0.3-0.5-0.6-0.5h-0.4V10.9zM143.7 8.9h0.4c0.4 0 0.7-0.2 0.7-0.5 0-0.3-0.2-0.5-0.7-0.5-0.2 0-0.3 0-0.4 0V8.9z"/><path class="st0" d="M4.4 35.6V18H1.8v-2.5h2.5v-1.2c0-2.2 0.3-4.4 1.8-6.1 1.2-1.3 2.8-1.7 4-1.7 1.1 0 1.9 0.2 2.5 0.5l-0.5 2.5c-0.4-0.2-0.9-0.3-1.7-0.3-2.3 0-2.8 2.5-2.8 5.1v1.2h3.7V18H7.6v17.7H4.4z"/><path class="st0" d="M79.4 20.7c0-1.7-0.1-3.7-0.2-5.2h2.9l0.2 3.2h0.1c0.7-1.9 2.4-3.5 4.2-3.5 0.2 0 0.5 0 0.7 0v3.3c-0.2 0-0.4 0-0.7 0-2 0-3.5 1.9-3.9 4.2-0.1 0.5-0.1 1.2-0.1 1.8v11.1h-3.2V20.7z"/><path class="st0" d="M98.8 10.3c0 1.2-0.7 2.1-2 2.1-1 0-1.8-0.8-1.8-2.1 0-1.2 0.8-2.1 1.9-2.1C98.1 8.3 98.8 9.1 98.8 10.3zM95.4 35.6V15.5h3.2v20.1H95.4z"/><path class="st0" d="M111.5 24.9L111.5 24.9c0.5-0.8 0.8-1.6 1.2-2.2l4-7.1h3.4l-5.3 8.5 5.8 11.6H117l-4.4-9.5-1.1 1.9v7.6h-3.2V6.9h3.2V24.9z"/><path class="st0" d="M32.1 35.6h3.1l-2.4-7.2h0.9v-2.3H32l-4.6-13.4h-3.6l-4.5 13.4h-1.6v2.3h0.8l-2.4 7.2h3l2.4-7.2h8.1L32.1 35.6zM24.4 19.6c0.4-1.4 0.8-2.8 1.1-4.1h0.1c0.3 1.3 0.7 2.7 1.2 4.2l2.2 6.6h-6.9L24.4 19.6z"/><path class="st0" d="M141.6 35.6h3.1l-2.4-7.2h0.9v-2.3h-1.6l-4.6-13.4h-3.6l-4.5 13.4h-1.6v2.3h0.8l-2.4 7.2h3l2.4-7.2h8.1L141.6 35.6zM133.9 19.6c0.4-1.4 0.8-2.8 1.2-4.1h0.1c0.3 1.3 0.7 2.7 1.2 4.2l2.2 6.6h-6.9L133.9 19.6z"/><path class="st0" d="M56.9 6.4c-10.2 0-18.5 8.3-18.5 18.5 0 6.8 3.6 12.7 9.1 15.9l0-19.4c0-2.6-0.1-4.7-0.2-6.6h3.3l0.2 3.4h0.1c1.5-2.5 3.9-3.9 7.1-3.9 4.9 0 8.5 4.1 8.5 10.2 0 7.2-4.4 10.8-9.1 10.8-2.7 0-5-1.2-6.2-3.2H51l0 10.2c1.8 0.6 3.8 1 5.9 1 10.2 0 18.5-8.3 18.5-18.5C75.4 14.7 67.1 6.4 56.9 6.4z"/><path class="st0" d="M56.7 32.6c3.9 0 6.1-3.2 6.1-7.8 0-4-2.1-7.5-6-7.5-2.5 0-4.8 1.8-5.5 4.5-0.1 0.5-0.2 1-0.2 1.5v3.4c0 0.5 0.1 1 0.2 1.5C51.8 30.9 54 32.6 56.7 32.6z"/></svg>