<?xml version="1.0" encoding="utf-8"?>
<!-- Generator: Adobe Illustrator 22.0.1, SVG Export Plug-In . SVG Version: 6.00 Build 0)  -->
<svg version="1.1" id="katman_1" xmlns="http://www.w3.org/2000/svg" xmlns:xlink="http://www.w3.org/1999/xlink" x="0px" y="0px"
	 viewBox="0 0 150 50" style="enable-background:new 0 0 150 50;" xml:space="preserve">
<style type="text/css">
	.st0{fill:#E62174;}
</style>
<g>
	<path class="st0" d="M23.9,28.7c0-0.6,0.1-1.3,0.3-2.1c0.2-0.9,0.4-1.8,0.7-2.8c-0.9,0.1-1.7,0.2-2.6,0.3c-0.9,0.1-1.6,0.2-2.3,0.2
		c-0.6,1.4-1.1,2.6-1.4,3.8c-0.3,1.2-0.6,2.3-0.8,3.4c-0.5-0.1-0.9-0.3-1.2-0.6c-0.3-0.3-0.6-0.7-0.9-1.1c0.1-0.2,0.2-0.5,0.4-0.8
		c0.1-0.3,0.3-0.7,0.5-1.2c0.2-0.5,0.4-1,0.6-1.6c0.2-0.6,0.5-1.3,0.8-2.2c-0.4-0.2-0.7-0.4-0.9-0.8c0.1-0.1,0.2-0.1,0.4-0.2
		c0.2-0.1,0.5-0.1,0.9-0.2l0.3-0.6c0.3-0.7,0.5-1.3,0.7-1.8s0.3-1,0.5-1.4c0.1-0.5,0.2-1,0.4-1.5c0.1-0.6,0.2-1.3,0.4-2.1
		c0.5,0.1,1.1,0.3,1.5,0.7c0.5,0.4,0.8,0.8,1.2,1.4c-0.1,0.2-0.3,0.4-0.4,0.7c-0.2,0.3-0.4,0.7-0.6,1.1c-0.2,0.4-0.4,0.9-0.7,1.5
		c-0.2,0.5-0.5,1.1-0.8,1.7c0.8-0.1,1.6-0.2,2.5-0.3c0.8-0.1,1.6-0.1,2.2-0.1c0.2-0.7,0.5-1.4,0.7-2c0.3-0.7,0.5-1.2,0.8-1.8
		c0.2-0.5,0.5-1,0.7-1.4s0.4-0.7,0.6-0.9c0.1,0,0.3,0.1,0.5,0.1c0.2,0.1,0.4,0.2,0.7,0.3c0.2,0.1,0.4,0.2,0.6,0.4
		c0.2,0.1,0.3,0.3,0.4,0.4c-0.2,0.2-0.5,0.5-0.7,0.9s-0.5,0.8-0.7,1.2c-0.2,0.5-0.5,1-0.7,1.5c-0.2,0.5-0.4,1.1-0.6,1.7
		c0.3,0.2,0.4,0.5,0.4,0.9c0,0.2-0.1,0.5-0.2,0.7c-0.1,0-0.2,0-0.4,0c-0.1,0-0.2,0-0.4,0c-0.2,0.7-0.4,1.4-0.6,2.1
		c-0.2,0.7-0.3,1.4-0.5,2c-0.1,0.6-0.2,1.2-0.3,1.7c-0.1,0.5-0.1,1-0.1,1.3c0,0.1,0,0.2,0,0.3c0,0.1,0,0.1,0,0.2
		c-0.3,0-0.5,0-0.6-0.1c-0.1-0.1-0.2-0.2-0.3-0.3s-0.1-0.2-0.2-0.3c-0.1-0.1-0.1-0.2-0.3-0.2c-0.1,0-0.2-0.1-0.3-0.3
		c-0.1-0.1-0.1-0.3-0.2-0.5c-0.1-0.2-0.1-0.4-0.1-0.6S23.9,28.8,23.9,28.7z"/>
	<path class="st0" d="M29.1,28.5c0-0.1,0-0.3,0-0.4c0-0.2,0.1-0.4,0.1-0.7c0.1-0.3,0.1-0.7,0.2-1.1c0.1-0.4,0.2-0.9,0.3-1.5
		c0-0.1,0.1-0.3,0.2-0.6c0.1-0.3,0.2-0.6,0.4-0.9c0.2-0.3,0.3-0.6,0.5-0.9c0.2-0.3,0.5-0.5,0.8-0.7c0.2,0.1,0.5,0.2,0.9,0.4
		c0.4,0.2,0.7,0.5,0.9,0.9c-0.3,0.3-0.6,0.7-0.8,1c-0.2,0.3-0.4,0.7-0.5,1.1c-0.2,0.4-0.3,0.7-0.5,1.1c-0.1,0.4-0.3,0.8-0.5,1.2
		c-0.1,0.4-0.3,0.7-0.4,1.1c-0.1,0.4-0.2,0.7-0.2,1c0,0.2,0,0.4,0,0.5c0,0.1,0,0.1-0.1,0.1c-0.1,0-0.2,0-0.3-0.1
		c-0.2-0.1-0.3-0.2-0.5-0.3c-0.2-0.1-0.3-0.3-0.4-0.5S29.1,28.8,29.1,28.5z M32.8,20c0-0.1,0-0.2,0.1-0.4c-0.1-0.1-0.1-0.2-0.2-0.3
		c0-0.1-0.1-0.2-0.1-0.4c0-0.1,0-0.3,0-0.5c0-0.2,0.1-0.4,0.1-0.7c0.1-0.2,0.1-0.5,0.2-0.7c0.1-0.3,0.2-0.5,0.2-0.7
		c0.2,0,0.4,0,0.6,0.1c0.2,0.1,0.5,0.2,0.7,0.3c0.2,0.1,0.5,0.3,0.6,0.5s0.3,0.3,0.5,0.5c-0.1,0.1-0.3,0.3-0.6,0.6
		c-0.2,0.3-0.5,0.5-0.7,0.8c-0.2,0.3-0.4,0.5-0.6,0.8c-0.2,0.2-0.3,0.4-0.4,0.5c-0.2,0-0.3-0.1-0.4-0.2C32.9,20.2,32.8,20.1,32.8,20
		z"/>
	<path class="st0" d="M33,29.5c0-0.2,0.2-0.5,0.5-1s0.9-1,1.5-1.6c0.6-0.6,1.3-1.2,2.1-1.9c0.8-0.7,1.6-1.3,2.5-1.9
		c-0.5-0.1-1-0.2-1.3-0.3c-0.3-0.1-0.6-0.1-0.8-0.1c-0.4,0-0.7,0.1-1,0.2c-0.3,0.1-0.6,0.3-0.9,0.5c-0.6-0.5-0.9-1.1-0.9-1.8
		c0-0.2,0-0.3,0-0.4c0.2-0.2,0.5-0.4,0.8-0.5s0.6-0.2,1-0.2c0.4,0,0.7,0.1,1.1,0.2s0.8,0.2,1.1,0.4c0.4,0.1,0.7,0.3,1,0.4
		c0.3,0.1,0.6,0.2,0.9,0.2c0.1,0,0.3,0,0.5-0.1s0.3-0.1,0.4-0.2c0.1,0.1,0.2,0.3,0.3,0.5c0.1,0.3,0.1,0.5,0.1,0.8
		c-0.4,0.2-0.9,0.4-1.5,0.8c-0.6,0.4-1.1,0.8-1.7,1.4c-0.6,0.5-1.2,1.1-1.7,1.6c-0.6,0.6-1,1.1-1.4,1.6c0.3,0.1,0.6,0.2,1.1,0.2
		c0.3,0,0.6,0,0.9-0.1c0.3-0.1,0.6-0.1,0.9-0.2s0.6-0.2,0.8-0.3c0.2-0.1,0.5-0.3,0.6-0.4c0.6,0.4,0.9,1,0.9,1.7c0,0.1,0,0.2,0,0.3
		c0,0.1,0,0.1,0,0.2c-0.6,0.4-1.3,0.6-2,0.6c-0.4,0-0.7,0-1.1-0.1c-0.4-0.1-0.7-0.1-1-0.2c-0.3-0.1-0.6-0.2-0.9-0.2
		c-0.3-0.1-0.6-0.1-0.8-0.1c-0.6,0-1.1,0.3-1.5,0.9c-0.2-0.1-0.3-0.2-0.4-0.4C33.1,29.9,33,29.7,33,29.5z"/>
	<path class="st0" d="M54.2,23.8c-0.2,0-0.5,0.1-0.8,0.4c-0.3,0.3-0.6,0.6-1,1c-0.3,0.4-0.7,0.8-1.1,1.3s-0.7,1-1.1,1.4
		c-0.3,0.5-0.7,0.9-1,1.3c-0.3,0.4-0.6,0.8-0.8,1c-0.3-0.1-0.5-0.3-0.7-0.5c-0.2-0.2-0.4-0.5-0.5-0.9c0.1-0.4,0.2-0.8,0.3-1.3
		c0.1-0.4,0.3-0.9,0.5-1.4s0.4-1,0.7-1.5c0.3-0.5,0.6-1.1,1-1.6c-0.2,0-0.5,0.1-0.8,0.4c-0.3,0.3-0.7,0.6-1.1,1
		c-0.4,0.4-0.8,0.9-1.2,1.4c-0.4,0.5-0.8,1.1-1.2,1.6c-0.5,0.7-0.9,1.3-1.2,1.8c-0.3,0.5-0.6,0.8-0.7,0.9c-0.3-0.2-0.6-0.5-0.7-0.8
		c-0.1-0.3-0.2-0.6-0.3-1c0-0.3,0.1-0.7,0.1-1.2c0.1-0.5,0.2-1,0.4-1.5c0.3-1,0.7-1.9,1.2-2.8c0.5-0.9,0.9-1.8,1.4-2.6
		c0.4,0.1,0.7,0.2,1,0.4c0.3,0.2,0.6,0.4,0.9,0.7c-0.1,0.4-0.3,0.8-0.6,1.3c-0.3,0.5-0.6,0.9-0.9,1.4c-0.3,0.5-0.6,1-0.8,1.5
		c-0.2,0.5-0.4,1.1-0.5,1.6c0.4-0.5,0.8-1.1,1.3-1.8c0.5-0.7,1-1.3,1.6-1.9c0.5-0.6,1.1-1.1,1.6-1.5s1-0.6,1.4-0.6
		c0.2,0,0.3,0,0.5,0.1c0.2,0.1,0.4,0.1,0.5,0.2c0.2,0.1,0.3,0.2,0.4,0.2c0.1,0.1,0.2,0.1,0.2,0.2c-0.1,0.3-0.2,0.6-0.5,1.1
		c-0.2,0.5-0.5,0.9-0.8,1.4c-0.3,0.5-0.5,1-0.8,1.4c-0.2,0.5-0.4,0.8-0.4,1.1c0.6-0.9,1.2-1.7,1.8-2.4c0.6-0.7,1.1-1.3,1.6-1.8
		c0.5-0.5,1-0.9,1.4-1.2c0.4-0.3,0.8-0.4,1.2-0.4c0.3,0,0.5,0.1,0.7,0.2c0.2,0.1,0.4,0.3,0.5,0.6c-0.1,0.4-0.3,0.9-0.6,1.4
		c-0.3,0.5-0.5,1.1-0.8,1.7c-0.3,0.6-0.5,1.2-0.7,1.8c-0.2,0.6-0.3,1.1-0.3,1.6c0,0.3,0,0.5,0.1,0.5c0.1,0.1,0.2,0.1,0.3,0.1
		c0.2,0,0.3,0,0.4-0.1c0.1-0.1,0.2-0.1,0.3-0.1c0.1,0.1,0.1,0.1,0.1,0.2s0,0.2,0,0.2c-0.3,0.2-0.5,0.4-0.8,0.5
		c-0.3,0.1-0.6,0.2-0.9,0.2c-0.3,0-0.6-0.1-0.8-0.2c-0.2-0.1-0.4-0.2-0.5-0.4s-0.2-0.4-0.3-0.6c-0.1-0.2-0.1-0.5-0.1-0.8
		c0-0.4,0.1-0.9,0.2-1.3c0.1-0.4,0.3-0.9,0.4-1.3c0.2-0.4,0.3-0.8,0.5-1.1C53.9,24.4,54.1,24.1,54.2,23.8z"/>
	<path class="st0" d="M64.9,21.7c-0.1,0.8-0.2,1.5-0.4,2.1c-0.2,0.6-0.6,1.1-1,1.5c-0.4,0.4-1,0.8-1.6,1.2s-1.4,0.7-2.2,1
		c0,0.1,0,0.2,0,0.2c0,0.1,0,0.2,0,0.3c0,0.2,0,0.3,0,0.5s0.1,0.4,0.1,0.5c0.1,0.2,0.2,0.3,0.3,0.4c0.1,0.1,0.3,0.1,0.5,0.1
		c0.4,0,0.7-0.1,1-0.2c0.3-0.2,0.7-0.3,1-0.6c0.3-0.2,0.6-0.5,0.9-0.7c0.3-0.3,0.5-0.5,0.7-0.7c0.1,0.1,0.2,0.2,0.3,0.3
		c-0.6,0.8-1.2,1.4-1.9,2c-0.7,0.5-1.4,0.8-2,1c-0.9-0.1-1.6-0.4-2.1-1c-0.5-0.6-0.8-1.2-0.8-2c0-0.5,0.1-1.1,0.2-1.6
		c0.2-0.6,0.4-1.1,0.6-1.6c0.3-0.5,0.6-1,0.9-1.5c0.4-0.5,0.7-0.9,1.2-1.2c0.4-0.3,0.8-0.6,1.3-0.8c0.4-0.2,0.9-0.3,1.3-0.3
		C63.8,20.6,64.4,21,64.9,21.7z M63.6,22.3c-0.4,0.1-0.7,0.2-1.1,0.4c-0.4,0.2-0.7,0.5-1.1,0.9s-0.6,0.9-0.9,1.4s-0.5,1.1-0.6,1.7
		c1-0.5,1.9-1.2,2.6-1.9C63.1,24.1,63.5,23.2,63.6,22.3z"/>
	<path class="st0" d="M66.9,22.3c-0.1-0.1-0.1-0.2-0.2-0.5c-0.1-0.3-0.1-0.5-0.1-0.7c0.3,0.1,0.7,0.1,1,0.1s0.6,0,0.9,0
		c0.2-0.4,0.4-0.8,0.6-1.2c0.2-0.4,0.5-0.7,0.7-1s0.4-0.6,0.6-0.8c0.2-0.2,0.3-0.4,0.4-0.4c0.1,0,0.3,0,0.5,0.1
		c0.2,0,0.4,0.1,0.6,0.2c0.2,0.1,0.4,0.1,0.6,0.2c0.2,0.1,0.3,0.2,0.4,0.2c-0.4,0.5-0.7,1-1,1.4c-0.3,0.4-0.6,0.9-0.9,1.5
		c0.3,0,0.5,0,0.8,0s0.5,0,0.8-0.1c0.1,0.1,0.1,0.1,0.2,0.2c0,0.1,0.1,0.2,0.1,0.3c-0.6,0.2-1.4,0.4-2.3,0.4
		c-0.3,0.6-0.6,1.3-0.9,1.9c-0.3,0.6-0.5,1.2-0.6,1.8c-0.2,0.6-0.3,1.1-0.4,1.6c-0.1,0.5-0.1,1-0.1,1.4c0,0.6,0.2,0.9,0.6,1
		c0.4-0.1,0.8-0.2,1.1-0.3c0.4-0.1,0.7-0.3,0.9-0.5c0.1,0.1,0.1,0.2,0.1,0.3c-0.1,0.1-0.2,0.3-0.4,0.4c-0.2,0.2-0.4,0.3-0.6,0.5
		s-0.4,0.3-0.6,0.4c-0.2,0.1-0.4,0.2-0.5,0.2c-0.3,0-0.7-0.1-1-0.2c-0.3-0.1-0.6-0.3-0.9-0.5c-0.3-0.2-0.5-0.4-0.7-0.7
		s-0.3-0.5-0.3-0.7c0-0.3,0-0.7,0.1-1.2s0.2-1,0.4-1.6c0.2-0.6,0.3-1.2,0.5-1.8c0.2-0.6,0.4-1.2,0.7-1.8H66.9z"/>
	<path class="st0" d="M73.8,22.3c-0.1-0.1-0.1-0.2-0.2-0.5c-0.1-0.3-0.1-0.5-0.1-0.7c0.3,0.1,0.7,0.1,1,0.1s0.6,0,0.9,0
		c0.2-0.4,0.4-0.8,0.6-1.2c0.2-0.4,0.5-0.7,0.7-1s0.4-0.6,0.6-0.8c0.2-0.2,0.3-0.4,0.4-0.4c0.1,0,0.3,0,0.5,0.1
		c0.2,0,0.4,0.1,0.6,0.2c0.2,0.1,0.4,0.1,0.6,0.2c0.2,0.1,0.3,0.2,0.4,0.2c-0.4,0.5-0.7,1-1,1.4c-0.3,0.4-0.6,0.9-0.9,1.5
		c0.3,0,0.5,0,0.8,0s0.5,0,0.8-0.1c0.1,0.1,0.1,0.1,0.2,0.2c0,0.1,0.1,0.2,0.1,0.3c-0.6,0.2-1.4,0.4-2.3,0.4
		c-0.3,0.6-0.6,1.3-0.9,1.9c-0.3,0.6-0.5,1.2-0.6,1.8c-0.2,0.6-0.3,1.1-0.4,1.6c-0.1,0.5-0.1,1-0.1,1.4c0,0.6,0.2,0.9,0.6,1
		c0.4-0.1,0.8-0.2,1.1-0.3c0.4-0.1,0.7-0.3,0.9-0.5c0.1,0.1,0.1,0.2,0.1,0.3c-0.1,0.1-0.2,0.3-0.4,0.4c-0.2,0.2-0.4,0.3-0.6,0.5
		s-0.4,0.3-0.6,0.4c-0.2,0.1-0.4,0.2-0.5,0.2c-0.3,0-0.7-0.1-1-0.2c-0.3-0.1-0.6-0.3-0.9-0.5c-0.3-0.2-0.5-0.4-0.7-0.7
		s-0.3-0.5-0.3-0.7c0-0.3,0-0.7,0.1-1.2s0.2-1,0.4-1.6c0.2-0.6,0.3-1.2,0.5-1.8c0.2-0.6,0.4-1.2,0.7-1.8H73.8z"/>
	<path class="st0" d="M86.5,21.7c-0.1,0.8-0.2,1.5-0.4,2.1c-0.2,0.6-0.6,1.1-1,1.5c-0.4,0.4-1,0.8-1.6,1.2c-0.6,0.4-1.4,0.7-2.2,1
		c0,0.1,0,0.2,0,0.2s0,0.2,0,0.3c0,0.2,0,0.3,0,0.5c0,0.2,0.1,0.4,0.1,0.5s0.2,0.3,0.3,0.4c0.1,0.1,0.3,0.1,0.5,0.1
		c0.4,0,0.7-0.1,1-0.2c0.3-0.2,0.7-0.3,1-0.6c0.3-0.2,0.6-0.5,0.9-0.7c0.3-0.3,0.5-0.5,0.7-0.7c0.1,0.1,0.2,0.2,0.3,0.3
		c-0.6,0.8-1.2,1.4-1.9,2c-0.7,0.5-1.4,0.8-2,1c-0.9-0.1-1.6-0.4-2.1-1c-0.5-0.6-0.8-1.2-0.8-2c0-0.5,0.1-1.1,0.2-1.6
		c0.2-0.6,0.4-1.1,0.6-1.6c0.3-0.5,0.6-1,0.9-1.5c0.4-0.5,0.7-0.9,1.2-1.2s0.8-0.6,1.3-0.8s0.9-0.3,1.3-0.3
		C85.5,20.6,86,21,86.5,21.7z M85.2,22.3c-0.4,0.1-0.7,0.2-1.1,0.4s-0.7,0.5-1.1,0.9s-0.6,0.9-0.9,1.4c-0.3,0.5-0.5,1.1-0.6,1.7
		c1-0.5,1.9-1.2,2.6-1.9C84.8,24.1,85.1,23.2,85.2,22.3z"/>
	<path class="st0" d="M95,22.7c0.3-0.1,0.6-0.1,0.9-0.1s0.6,0,0.9,0c0.1,0,0.3,0,0.4,0c0.1,0,0.3,0,0.4,0c0.5-0.8,1-1.6,1.6-2.4
		c0.6-0.8,1.2-1.6,1.9-2.4c-0.5-0.2-0.9-0.3-1.4-0.4c-0.4-0.1-0.8-0.1-1.2-0.1c-1.2,0-2,0.5-2.3,1.5c-0.5-0.1-0.9-0.3-1.3-0.6
		c-0.4-0.3-0.6-0.7-0.7-1.1c0.5-1,1.3-1.4,2.6-1.4c0.4,0,0.8,0,1.2,0.1c0.4,0.1,0.9,0.2,1.3,0.4c0.4,0.2,0.8,0.3,1.3,0.5
		s0.8,0.4,1.1,0.5c0.1-0.1,0.3-0.3,0.4-0.4c0.1-0.1,0.3-0.3,0.4-0.4c0.3,0.2,0.7,0.4,1,0.7c0.3,0.3,0.5,0.7,0.6,1
		c-0.8,0.4-1.5,1.1-2.3,2c-0.7,0.9-1.4,1.9-2,3.1c0.6,0.2,1.1,0.4,1.6,0.7c0.4,0.3,0.8,0.6,1,1l-0.1,0.1c-0.3-0.2-0.7-0.3-1.3-0.5
		c-0.5-0.1-1.1-0.2-1.7-0.3c-0.5,1.2-1,2.5-1.3,3.7s-0.5,2.4-0.5,3.4c-0.6-0.1-1.1-0.3-1.6-0.5c-0.5-0.3-0.8-0.5-1-0.8
		c0-0.7,0.2-1.6,0.5-2.6c0.3-1,0.8-2.1,1.4-3.3c-0.5,0-1,0-1.4,0s-0.8,0-1.2,0.1c0,0,0,0,0,0s0,0,0,0c0-0.1,0-0.2,0.1-0.3
		c0.1-0.1,0.1-0.3,0.2-0.4c0.1-0.1,0.2-0.2,0.2-0.4C94.8,22.8,94.9,22.7,95,22.7z"/>
	<path class="st0" d="M103.6,30.6c-0.2,0-0.4-0.1-0.7-0.3c-0.2-0.2-0.4-0.3-0.4-0.5c0-0.2,0-0.4,0.1-0.6c0-0.2,0.1-0.5,0.2-0.8
		c0.1-0.3,0.1-0.5,0.2-0.7c0.1-0.2,0.1-0.4,0.1-0.5c0.2,0,0.4,0,0.6,0.1c0.2,0.1,0.5,0.2,0.7,0.3c0.3,0.1,0.5,0.3,0.7,0.5
		c0.2,0.2,0.4,0.4,0.5,0.5c-0.1,0.3-0.3,0.5-0.5,0.7c-0.2,0.2-0.4,0.4-0.6,0.6s-0.4,0.3-0.6,0.4C103.9,30.5,103.7,30.6,103.6,30.6z"
		/>
	<path class="st0" d="M119.8,23c1-1.1,1.9-2.2,2.6-3.4c0.8-1.2,1.5-2.6,2.2-4.1c0.3,0,0.7,0.1,1,0.3c0.3,0.1,0.6,0.3,0.7,0.5
		c-0.7,0.9-1.4,1.6-2,2.4c-0.6,0.7-1.1,1.4-1.6,2c-0.5,0.6-0.9,1.2-1.3,1.8s-0.8,1.1-1.2,1.7c-0.2,0.7-0.4,1.3-0.6,2
		c-0.2,0.7-0.3,1.3-0.5,2s-0.2,1.2-0.3,1.7s-0.1,1-0.1,1.4c-0.1,0-0.4,0-0.7-0.1c-0.3-0.1-0.6-0.1-1-0.2c-0.3-0.1-0.6-0.2-0.9-0.2
		c-0.3-0.1-0.4-0.1-0.5-0.2c0.2-0.4,0.4-0.8,0.6-1.3c0.2-0.5,0.4-1.1,0.6-1.6c0.2-0.6,0.4-1.1,0.6-1.7c0.2-0.6,0.4-1.1,0.5-1.6
		c-0.3-1-0.6-2-1-2.9s-0.6-1.7-0.9-2.4s-0.6-1.4-0.8-1.9c-0.3-0.5-0.5-0.9-0.7-1.2c0.1-0.1,0.3-0.1,0.6-0.2c0.3-0.1,0.6-0.1,0.9-0.2
		c0.3-0.1,0.6-0.1,1-0.1c0.3,0,0.6,0,0.9,0c0,0.3,0,0.7,0.1,1.2s0.1,1,0.2,1.5c0.1,0.5,0.2,1.1,0.3,1.6c0.1,0.5,0.3,1.1,0.4,1.5
		c0.1,0.5,0.3,0.9,0.4,1.2C119.6,22.7,119.7,22.9,119.8,23z"/>
	<path class="st0" d="M122.9,28.7c0-0.1,0-0.3,0-0.5c0-0.2,0.1-0.4,0.1-0.7c0.1-0.3,0.1-0.6,0.2-1c0.1-0.4,0.2-0.9,0.3-1.5
		c0-0.1,0.1-0.3,0.2-0.6s0.2-0.6,0.3-0.9s0.3-0.6,0.5-0.9c0.2-0.3,0.5-0.5,0.8-0.7c0.2,0,0.5,0.1,0.9,0.4s0.7,0.5,1,0.9
		c-0.6,0.7-1,1.4-1.3,2.1s-0.6,1.5-0.8,2.4c-0.1,0.5-0.3,0.9-0.4,1.2s-0.2,0.6-0.2,1c0,0.2,0,0.4,0,0.5c0,0.1,0,0.2-0.1,0.2
		c0,0-0.1,0-0.3-0.1c-0.2-0.1-0.3-0.2-0.5-0.3s-0.3-0.3-0.5-0.5C123,29.3,122.9,29,122.9,28.7z"/>
	<path class="st0" d="M127.6,28.6c0-0.6,0.1-1.4,0.4-2.4c0.3-1,0.7-2.3,1.2-3.6c0.8-2.2,1.6-4.1,2.3-5.5c0.7-1.5,1.4-2.6,2.1-3.4
		c0.2,0,0.4,0.1,0.6,0.2c0.2,0.1,0.5,0.2,0.7,0.3c0.2,0.1,0.4,0.3,0.6,0.4s0.3,0.2,0.3,0.3c-1,1.2-1.9,2.5-2.7,3.9s-1.5,3-2.1,4.8
		c-0.5,1.5-1,2.9-1.3,4.2s-0.4,2.3-0.4,3.1c0,0.2,0,0.4,0,0.4c0,0.1,0,0.1,0,0.2c-0.2,0-0.3-0.1-0.5-0.1s-0.2-0.1-0.3-0.2
		c0-0.1-0.1-0.2-0.2-0.3c-0.1-0.1-0.2-0.2-0.3-0.3c-0.1-0.1-0.2-0.3-0.3-0.6C127.6,29.3,127.6,29,127.6,28.6z"/>
</g>
</svg>
